<svg width="400" height="300" viewBox="0 0 400 300" fill="none" xmlns="http://www.w3.org/2000/svg">
  <!-- Car Body -->
  <rect x="50" y="150" width="300" height="80" rx="10" fill="#409EFF"/>
  
  <!-- Car Windows -->
  <rect x="70" y="120" width="80" height="40" rx="5" fill="#E6F7FF"/>
  <rect x="170" y="120" width="80" height="40" rx="5" fill="#E6F7FF"/>
  <rect x="270" y="120" width="60" height="40" rx="5" fill="#E6F7FF"/>
  
  <!-- Car Wheels -->
  <circle cx="100" cy="240" r="25" fill="#333"/>
  <circle cx="100" cy="240" r="15" fill="#666"/>
  <circle cx="300" cy="240" r="25" fill="#333"/>
  <circle cx="300" cy="240" r="15" fill="#666"/>
  
  <!-- Car Details -->
  <rect x="60" y="170" width="20" height="10" rx="2" fill="#FFF"/>
  <rect x="320" y="170" width="20" height="10" rx="2" fill="#FFF"/>
  
  <!-- Road -->
  <rect x="0" y="260" width="400" height="40" fill="#666"/>
  <rect x="0" y="275" width="50" height="5" fill="#FFF"/>
  <rect x="70" y="275" width="50" height="5" fill="#FFF"/>
  <rect x="140" y="275" width="50" height="5" fill="#FFF"/>
  <rect x="210" y="275" width="50" height="5" fill="#FFF"/>
  <rect x="280" y="275" width="50" height="5" fill="#FFF"/>
  <rect x="350" y="275" width="50" height="5" fill="#FFF"/>
  
  <!-- Background Elements -->
  <circle cx="350" cy="50" r="30" fill="#FFE58F" opacity="0.8"/>
  <polygon points="30,100 50,60 70,100" fill="#52C41A" opacity="0.6"/>
  <polygon points="320,80 340,40 360,80" fill="#52C41A" opacity="0.6"/>
</svg>
