<svg width="300" height="250" viewBox="0 0 300 250" fill="none" xmlns="http://www.w3.org/2000/svg">
  <!-- Background -->
  <rect width="300" height="250" fill="#F0F8FF"/>
  
  <!-- Road -->
  <rect x="0" y="200" width="300" height="50" fill="#666"/>
  <rect x="0" y="220" width="40" height="4" fill="#FFF"/>
  <rect x="60" y="220" width="40" height="4" fill="#FFF"/>
  <rect x="120" y="220" width="40" height="4" fill="#FFF"/>
  <rect x="180" y="220" width="40" height="4" fill="#FFF"/>
  <rect x="240" y="220" width="40" height="4" fill="#FFF"/>
  
  <!-- Car -->
  <rect x="100" y="160" width="100" height="40" rx="5" fill="#409EFF"/>
  <rect x="110" y="140" width="30" height="25" rx="3" fill="#E6F7FF"/>
  <rect x="150" y="140" width="30" height="25" rx="3" fill="#E6F7FF"/>
  <circle cx="120" cy="210" r="12" fill="#333"/>
  <circle cx="120" cy="210" r="7" fill="#666"/>
  <circle cx="180" cy="210" r="12" fill="#333"/>
  <circle cx="180" cy="210" r="7" fill="#666"/>
  
  <!-- Traffic Light -->
  <rect x="50" y="80" width="15" height="60" rx="7" fill="#333"/>
  <circle cx="57.5" cy="95" r="5" fill="#FF4D4F"/>
  <circle cx="57.5" cy="110" r="5" fill="#FAAD14"/>
  <circle cx="57.5" cy="125" r="5" fill="#52C41A"/>
  
  <!-- Buildings -->
  <rect x="220" y="100" width="40" height="100" fill="#E6E6E6"/>
  <rect x="225" y="110" width="8" height="8" fill="#409EFF"/>
  <rect x="237" y="110" width="8" height="8" fill="#409EFF"/>
  <rect x="249" y="110" width="8" height="8" fill="#409EFF"/>
  <rect x="225" y="125" width="8" height="8" fill="#409EFF"/>
  <rect x="237" y="125" width="8" height="8" fill="#409EFF"/>
  <rect x="249" y="125" width="8" height="8" fill="#409EFF"/>
  
  <rect x="270" y="120" width="30" height="80" fill="#D9D9D9"/>
  <rect x="275" y="130" width="6" height="6" fill="#409EFF"/>
  <rect x="285" y="130" width="6" height="6" fill="#409EFF"/>
  <rect x="275" y="145" width="6" height="6" fill="#409EFF"/>
  <rect x="285" y="145" width="6" height="6" fill="#409EFF"/>
  
  <!-- Trees -->
  <circle cx="30" cy="150" r="20" fill="#52C41A"/>
  <rect x="27" y="160" width="6" height="20" fill="#8B4513"/>
  
  <circle cx="250" cy="170" r="15" fill="#52C41A"/>
  <rect x="247" y="175" width="6" height="15" fill="#8B4513"/>
  
  <!-- Sun -->
  <circle cx="250" cy="40" r="20" fill="#FAAD14"/>
  <line x1="230" y1="40" x2="220" y2="40" stroke="#FAAD14" stroke-width="3"/>
  <line x1="270" y1="40" x2="280" y2="40" stroke="#FAAD14" stroke-width="3"/>
  <line x1="250" y1="20" x2="250" y2="10" stroke="#FAAD14" stroke-width="3"/>
  <line x1="250" y1="60" x2="250" y2="70" stroke="#FAAD14" stroke-width="3"/>
  
  <!-- Clouds -->
  <ellipse cx="80" cy="30" rx="15" ry="8" fill="#FFF"/>
  <ellipse cx="90" cy="25" rx="12" ry="6" fill="#FFF"/>
  <ellipse cx="100" cy="30" rx="10" ry="5" fill="#FFF"/>
  
  <ellipse cx="180" cy="25" rx="12" ry="6" fill="#FFF"/>
  <ellipse cx="190" cy="20" rx="10" ry="5" fill="#FFF"/>
  
  <!-- Driver Education Symbol -->
  <circle cx="150" cy="80" r="25" fill="#409EFF" opacity="0.8"/>
  <text x="150" y="88" text-anchor="middle" fill="#FFF" font-size="20" font-weight="bold">学</text>
</svg>
